<svg xmlns="http://www.w3.org/2000/svg" xmlns:xlink="http://www.w3.org/1999/xlink" version="1.1" id="Layer_1" x="0px" y="0px" viewBox="0 0 512 512" style="fill: #e76f51; enable-background:new 0 0 512 512;" xml:space="preserve" width="512" height="512" class="svg replaced-svg injected-svg" data-src="https://cdn-server.hiddenbrains.com/uploads/industries_education_61418f5000.svg?ver-20240927194735" role="img">
<g>
	<polygon points="422,123.765 422,250.789 396.395,276.395 417.605,297.605 437,278.211 456.395,297.605 477.605,276.395    452,250.789 452,113.176 512,92 256,0 0,92 256,182  "></polygon>
	<polygon points="392,166.167 256,213.816 120,166.167 120,236.272 256,303.772 392,236.272  "></polygon>
	<path d="M105,452c8.276,0,15-6.724,15-15v-15H90v15C90,445.276,96.724,452,105,452z"></path>
	<path d="M60,512c22.441,0,41.774-12.468,52.066-30.714c-2.318,0.37-4.647,0.714-7.066,0.714c-24.814,0-45-20.186-45-45v-45h60   c0-33.137-26.863-60-60-60S0,358.863,0,392v60C0,485.137,26.863,512,60,512z"></path>
	<path d="M285.59,482.205l0.319,0.064C293.822,468.551,301,446.637,301,422c0-24.646-7.181-46.567-15.099-60.284l-0.326,0.064   l-28.129-4.017C265.864,376.42,271,399.462,271,422c0,19.638-4.477,43.918-13.14,64.167L285.59,482.205z"></path>
	<path d="M434.627,332.293c-0.19,0-0.381,0-0.571,0l-117.669,23.328C325.904,376.143,331,401.26,331,422   c0,20.718-5.09,45.802-14.586,66.312L437,512c41.353,0,75-33.647,75-75v-30C512,365.823,478.646,332.293,434.627,332.293z"></path>
	<path d="M133.345,503.819l87.019-12.292C230.149,480.312,241,452.119,241,422c0-26.84-9.686-56.83-22.244-69.765l-85.415-12.057   C143.749,354.859,150,372.673,150,392v60C150,471.325,143.751,489.139,133.345,503.819z"></path>
</g>















</svg>