<svg xmlns="http://www.w3.org/2000/svg" style="fill:#fff;" id="Capa_1" enable-background="new 0 0 512 512" height="512" viewBox="0 0 512 512" width="512" class="svg replaced-svg injected-svg" data-src="https://cdn-server.hiddenbrains.com/uploads/industries_oil_gas_1e36e82c3c.svg?ver-20240927194735" xmlns:xlink="http://www.w3.org/1999/xlink" role="img"><g><path d="m421 497c0-7.112-3.647-9.216-14.678-21.987-12.389 13.581-15.322 14.831-15.322 21.987 0 8.276 6.724 15 15 15s15-6.724 15-15z"></path><path d="m406 302c0 32.754-22.661 57.964-42.686 80.259-17.343 19.277-32.314 35.932-32.314 54.741 0 24.424 11.913 45.95 30.044 59.654.126-17.401 8.754-26.605 17.93-36.304 15.055-15.895 15.859-19.091 26.25-32.153 13.187 15.13 12.834 14.978 24.287 27.759 14.202 15.844 21.337 23.897 21.447 40.697 18.129-13.705 30.042-35.23 30.042-59.653 0-73.901-71.953-132.568-75-135z"></path><path d="m301 437c0-30.337 20.347-52.939 40.02-74.81 17.197-19.16 34.98-38.95 34.98-60.19v-61h-315v181h-30v30h271.745c-.723-4.973-1.745-9.877-1.745-15z"></path><path d="m421 181h-30v-151h30v-30h-390v30h30v151h-30v30h390z"></path></g></svg>