<svg xmlns="http://www.w3.org/2000/svg" style="fill:#fff;" enable-background="new 0 0 24 24" height="512" viewBox="0 0 24 24" width="512" class="svg replaced-svg injected-svg" data-src="https://cdn-server.hiddenbrains.com/uploads/industries_logistics_2fc3ea0480.svg?ver-20240927194735" xmlns:xlink="http://www.w3.org/1999/xlink" role="img"><path d="m13.25 4h-1.75v2.79c0 .41-.34.75-.75.75s-.75-.34-.75-.75v-2.79h-2.25c-.41 0-.75.34-.75.75v1.25h.75c.96 0 1.75.79 1.75 1.75v4.25h4.25c.09 0 .17.01.25.03v-7.28c0-.41-.34-.75-.75-.75z"></path><path d="m7.75 7h-1.75v2.89c0 .42-.34.75-.75.75s-.75-.33-.75-.75v-2.89h-1.75c-.41 0-.75.34-.75.75v4.25h6.5v-4.25c0-.41-.34-.75-.75-.75z"></path><path d="m13.75 13h-13c-.41 0-.75.34-.75.75v4.5c0 .41.34.75.75.75h.33c-.05-.24-.08-.49-.08-.75 0-2.07 1.68-3.75 3.75-3.75s3.75 1.68 3.75 3.75c0 .26-.03.51-.08.75h5.33c.41 0 .75-.34.75-.75v-4.5c0-.41-.34-.75-.75-.75z"></path><path d="m19.25 7h-3c-.41 0-.75.34-.75.75v10.5c0-2.07 1.68-3.75 3.75-3.75s3.75 1.68 3.75 3.75c0 .26-.03.51-.08.75h.33c.41 0 .75-.34.75-.75v-6.5c0-2.62-2.13-4.75-4.75-4.75z"></path><path d="m19.25 21c-1.517 0-2.75-1.233-2.75-2.75s1.233-2.75 2.75-2.75 2.75 1.233 2.75 2.75-1.233 2.75-2.75 2.75z"></path><path d="m4.75 21c-1.517 0-2.75-1.233-2.75-2.75s1.233-2.75 2.75-2.75 2.75 1.233 2.75 2.75-1.233 2.75-2.75 2.75z"></path></svg>