<svg xmlns="http://www.w3.org/2000/svg" id="Capa_1" enable-background="new 0 0 512 512" height="512" viewBox="0 0 512 512" width="512" class="svg replaced-svg injected-svg" data-src="https://cdn-server.hiddenbrains.com/uploads/industries_media_1a8f045be7.svg?ver-20240927194735" xmlns:xlink="http://www.w3.org/1999/xlink" role="img"><g><g><path d="m90.333 0h60.333v80h-60.333z"></path><path d="m271 0h60.333v80h-60.333z"></path><path d="m180.667 0h60.333v80h-60.333z"></path><path d="m361.333 0h60.333v80h-60.333z"></path><path d="m497 0h-45.333v80h60.333v-65c0-8.284-6.716-15-15-15z"></path><path d="m60.333 0h-45.333c-8.284 0-15 6.716-15 15v65h60.333z"></path></g><g><path d="m90.333 432h60.333v80h-60.333z"></path><path d="m271 432h60.333v80h-60.333z"></path><path d="m180.667 432h60.333v80h-60.333z"></path><path d="m361.333 432h60.333v80h-60.333z"></path><path d="m497 512h-45.333v-80h60.333v65c0 8.284-6.716 15-15 15z"></path><path d="m60.333 512h-45.333c-8.284 0-15-6.716-15-15v-65h60.333z"></path></g><path d="m251 271 20-15-20-15z"></path><path d="m256 171c-46.869 0-85 38.131-85 85s38.131 85 85 85 85-38.131 85-85-38.131-85-85-85zm49 97-60 45c-2.646 1.985-5.814 3-9.002 3-2.287 0-4.583-.522-6.706-1.583-5.082-2.542-8.292-7.735-8.292-13.417v-90c0-5.682 3.21-10.875 8.292-13.417 5.081-2.541 11.162-1.993 15.708 1.417l60 45c3.777 2.833 6 7.279 6 12s-2.223 9.167-6 12z"></path><path d="m0 110v292h512v-292zm256 261c-63.411 0-115-51.589-115-115s51.589-115 115-115 115 51.589 115 115-51.589 115-115 115z"></path></g></svg>