<svg xmlns="http://www.w3.org/2000/svg" width="85" height="71" viewBox="0 0 85 71" fill="none" class="injected-svg" data-src="https://cdn-server.hiddenbrains.com/_next/static/media/quote-line.9c10115a.svg" xmlns:xlink="http://www.w3.org/1999/xlink" role="img">
<path d="M6.2329 64.219L6.23856 64.2249L6.24453 64.2306C10.1472 67.9382 15.1201 69.7844 21.1363 69.7844C26.7754 69.7844 31.462 67.9338 35.171 64.2249L35.171 64.2249L35.1767 64.219C38.8842 60.3163 40.7305 55.3434 40.7305 49.3272C40.7305 45.452 39.9558 42.3148 38.3753 39.944C36.8185 37.6087 34.6836 35.3792 31.978 33.2534L31.9768 33.2525C30.2682 31.9236 28.9485 30.6973 28.0101 29.574C27.2833 28.4783 26.9228 27.2981 26.9228 26.0266C26.9228 23.819 28.0322 20.9108 30.3251 17.2804C32.6119 13.6597 35.7614 9.74516 39.7788 5.53651L39.9953 5.3097L39.7735 5.08799L35.4586 0.773073L35.2726 0.587038L35.0537 0.732976C24.6691 7.65607 16.2967 15.6416 9.94251 24.6915L9.94171 24.6927C3.78318 33.5456 0.679077 41.7595 0.679077 49.3272C0.679077 55.3434 2.52536 60.3163 6.2329 64.219Z" stroke="#E87354" stroke-width="0.641846"></path>
<path d="M49.8232 64.2195L49.8289 64.2254L49.8349 64.2311C53.7375 67.9386 58.7104 69.7849 64.7266 69.7849C70.3657 69.7849 75.0523 67.9343 78.7613 64.2254L78.7614 64.2254L78.767 64.2195C82.4746 60.3168 84.3209 55.3439 84.3209 49.3277C84.3209 45.4525 83.5462 42.3152 81.9657 39.9445C80.4088 37.6092 78.2739 35.3797 75.5684 33.2539L75.5671 33.2529C73.8585 31.9241 72.5388 30.6978 71.6004 29.5745C70.8737 28.4788 70.5131 27.2986 70.5131 26.0271C70.5131 23.8195 71.6226 20.9113 73.9155 17.2809C76.2022 13.6602 79.3517 9.74565 83.3691 5.537L83.5856 5.31019L83.3639 5.08848L79.049 0.773561L78.8629 0.587526L78.644 0.733465C68.2594 7.65656 59.887 15.6421 53.5328 24.692L53.532 24.6932C47.3735 33.5461 44.2694 41.76 44.2694 49.3277C44.2694 55.3439 46.1157 60.3168 49.8232 64.2195Z" stroke="#E87354" stroke-width="0.641846"></path>
</svg>