<svg xmlns="http://www.w3.org/2000/svg" xmlns:xlink="http://www.w3.org/1999/xlink" version="1.1" id="Layer_2" x="0px" y="0px" width="120px" height="120px" viewBox="0 0 120 120" enable-background="new 0 0 120 120" xml:space="preserve" class="injected-svg" data-src="https://cdn-server.hiddenbrains.com/uploads/Hi_Tech_hm_01_a98eb60d23.svg?ver-20240927194735" role="img">
<g>
	<path d="M20.643,55.02c1.284-1.785,2.375-3.233,3.377-4.739c0.312-0.465,0.547-1.083,0.551-1.633   c0.047-4.055-0.003-8.11,0.045-12.164c0.015-1.1-0.309-1.922-1.095-2.69c-2.783-2.722-5.509-5.501-8.281-8.235   c-0.451-0.446-0.534-0.813-0.416-1.463c0.19-1.051,0.327-2.201,0.099-3.223c-0.717-3.213-4.035-5.126-7.204-4.311   c-3.191,0.82-5.068,3.932-4.289,7.108c0.773,3.147,4.035,5.068,7.272,4.173c0.831-0.229,1.311-0.09,1.878,0.505   c2.439,2.55,4.945,5.034,7.365,7.6c0.39,0.412,0.646,1.11,0.665,1.688c0.077,2.267,0.032,4.539,0.032,6.81   C20.643,47.849,20.643,51.248,20.643,55.02z M9.199,24.463c-1.206,0.025-2.116-0.82-2.144-1.988   c-0.027-1.141,0.905-2.122,2.032-2.133c1.154-0.015,2.268,1.02,2.268,2.101C11.354,23.544,10.398,24.439,9.199,24.463z"></path>
	<path d="M43.106,37.821c0.988-0.179,1.854-0.406,2.733-0.477c0.85-0.071,1.057-0.464,1.05-1.256   c-0.034-3.487-0.026-6.978,0-10.468c0.004-0.452,0.115-0.971,0.354-1.345c1.991-3.105,4.036-6.179,6.037-9.277   c0.356-0.553,0.68-0.846,1.438-0.785c3.082,0.249,5.649-1.987,6.103-5.207c0.416-2.957-1.718-6.02-4.646-6.672   c-2.887-0.643-5.848,1.135-6.737,4.062c-0.651,2.142-0.16,4.075,1.199,5.852c-1.507,2.261-2.833,4.61-4.505,6.681   c-2.422,3.001-3.44,6.238-3.078,10.099C43.324,31.917,43.106,34.852,43.106,37.821z M54.933,5.981   c1.21-0.004,2.13,0.997,2.112,2.303c-0.016,1.229-0.851,2.051-2.058,2.026c-1.205-0.024-2.118-1.068-2.064-2.357   C52.972,6.776,53.774,5.986,54.933,5.981z"></path>
	<path d="M29.75,18.962c0.763,0.39,0.92,0.824,0.918,1.582c-0.022,7.216-0.014,14.432-0.014,21.648   c0,0.428,0,0.856,0,1.454c1.058-0.668,1.846-1.25,2.711-1.684c0.793-0.397,1.055-0.908,1.049-1.801   c-0.04-6.485-0.005-12.971-0.04-19.457c-0.007-0.86,0.184-1.351,1.005-1.786c2.505-1.334,3.689-4.122,2.982-6.679   c-0.721-2.617-3.122-4.391-5.9-4.361c-2.686,0.03-5.156,1.949-5.813,4.518C26.045,14.756,27.389,17.751,29.75,18.962z    M32.675,11.696c1.208,0.073,2.217,1.143,2.105,2.229c-0.112,1.083-1.159,1.928-2.325,1.874c-1.193-0.054-2.269-1.121-2.195-2.176   C30.336,12.543,31.488,11.623,32.675,11.696z"></path>
	<path d="M55.894,26.386c-1.817,0.004-2.37,0.562-2.38,2.409c-0.012,2.39-0.006,4.782,0.001,7.174   c0,0.307,0.068,0.613,0.107,0.953c1.198,0.125,2.322,0.242,3.649,0.378c0-2.391,0-4.684,0-6.953   c0.231-0.071,0.342-0.136,0.454-0.136c2.271-0.011,4.54,0.015,6.809-0.036c0.81-0.017,1.292,0.17,1.717,0.946   c1.196,2.181,3.749,3.355,6.056,2.943c2.779-0.497,4.793-2.69,4.943-5.384c0.155-2.861-1.61-5.428-4.274-6.21   c-2.603-0.765-5.286,0.344-6.677,2.901c-0.435,0.802-0.896,1.053-1.771,1.035C61.65,26.349,58.77,26.378,55.894,26.386z    M71.374,26.197c1.154-0.013,2.127,0.979,2.14,2.196c0.022,1.135-0.91,2.107-2.046,2.129c-1.181,0.022-2.25-0.935-2.289-2.051   C69.135,27.244,70.13,26.213,71.374,26.197z"></path>
	<path d="M112.723,75.673c-2.365-0.872-5.178-0.283-6.469,1.923c-1.07,1.819-2.4,2.048-4.145,1.879   c-0.401-0.04-0.828,0.074-1.208-0.023c-0.548-0.143-1.176-0.289-1.564-0.656c-1.572-1.467-3.036-3.043-4.595-4.52   c-0.416-0.394-1.006-0.757-1.553-0.824c-1.071-0.127-2.171-0.035-3.382-0.035c-0.063,1.341-0.119,2.503-0.172,3.639   c1.021,0.165,2.068,0.096,2.853,0.517c0.854,0.462,1.574,1.292,2.158,2.104c2.186,3.02,5.069,4.195,8.718,3.573   c1.129-0.189,1.781,0.245,2.386,1.268c1.303,2.213,4.06,3.16,6.572,2.477c2.462-0.67,4.32-2.916,4.419-5.355   C116.844,79.11,115.129,76.565,112.723,75.673z M110.725,83.401c-1.129,0.013-2.087-0.943-2.072-2.072   c0.005-1.163,1.013-2.206,2.117-2.202c1.146,0.004,2.248,1.066,2.214,2.131C112.948,82.28,111.783,83.385,110.725,83.401z"></path>
	<path d="M86.757,58.263c1.785,0.069,3.569,0.011,5.354,0.038c1.168,0.017,2.091-0.395,2.888-1.266   c1.834-2.001,3.73-3.95,5.589-5.935c0.414-0.438,0.74-0.678,1.439-0.441c2.126,0.715,4.022,0.114,5.581-1.421   c1.627-1.607,2.149-3.611,1.579-5.817c-0.841-3.235-4.13-5.061-7.299-4.126c-3.151,0.93-4.925,4.245-3.839,7.428   c0.33,0.968,0.156,1.526-0.517,2.202c-1.602,1.61-3.097,3.324-4.705,4.927c-0.379,0.376-1.021,0.664-1.548,0.679   c-2.35,0.073-4.7,0.032-7.265,0.032c0.617,1.138,1.086,2.119,1.674,3.026C85.899,57.916,86.383,58.248,86.757,58.263z    M103.542,42.859c1.148-0.006,2.1,0.943,2.085,2.075c-0.015,1.181-1.028,2.214-2.144,2.19c-1.177-0.025-2.028-1.01-1.972-2.291   C101.554,43.698,102.411,42.865,103.542,42.859z"></path>
	<path d="M98.41,68.592c1.275,2.468,4.227,3.69,6.942,2.886c2.735-0.817,4.501-3.423,4.214-6.213   c-0.246-2.404-2.062-4.457-4.462-5.048c-2.625-0.646-5.216,0.322-6.598,2.688c-0.525,0.9-1.108,1.085-2.033,1.07   c-2.311-0.052-4.623-0.021-6.932-0.017c-0.379,0.004-0.757,0.055-1.229,0.092c0.339,1.317,0.632,2.479,0.94,3.687   c2.915,0,5.789,0,8.754,0C98.17,68.082,98.28,68.343,98.41,68.592z M103.609,63.832c1.164,0.023,2.062,1.011,2.041,2.242   c-0.018,1.07-0.947,1.898-2.104,1.874c-1.135-0.023-2.051-0.971-2.034-2.106C101.522,64.673,102.434,63.801,103.609,63.832z"></path>
	<path d="M83.442,78.145c-0.238-0.467-0.36-1.086-0.289-1.6c0.438-3.05,0.414-6.073-0.029-9.126   C80.623,50.322,64.219,38.391,47.21,41.313c-14.291,2.454-25.191,14.708-25.895,29.252c-0.558,11.644,4.032,20.793,13.694,27.349   c0.567,0.383,0.779,0.779,0.777,1.461c-0.028,5.241-0.019,10.483-0.013,15.726c0,2.01,0.451,2.472,2.449,2.472   c6.601,0,13.201,0,19.805,0c2.489,0,4.977,0.011,7.471-0.004c1.501-0.013,2.008-0.542,2.052-2.058   c0.017-0.489,0.006-0.975,0.006-1.471c0-1.761,0-3.529,0-5.396c2.022,0,3.9,0.019,5.782,0c4.049-0.04,6.809-2.796,6.849-6.841   c0.017-2.371,0.027-4.748-0.021-7.128c-0.008-0.707,0.207-1.069,0.891-1.326c2.189-0.81,4.353-1.682,6.519-2.562   c1.338-0.546,1.633-1.426,0.98-2.688C86.84,84.787,85.113,81.479,83.442,78.145z M67.667,99.576   c-0.029,1.18-0.643,1.859-1.834,2.045c-1.524,0.242-1.809,0.881-0.947,2.191c0.647,0.995,0.587,1.929-0.185,2.773   c-0.847,0.93-1.741,1.816-2.664,2.67c-0.87,0.808-1.801,0.722-2.771,0.086c-1.241-0.82-1.814-0.548-2.125,0.931   c-0.296,1.398-0.81,1.832-2.253,1.856c-1.093,0.02-2.19,0.02-3.283,0c-1.442-0.021-2.068-0.55-2.35-1.938   c-0.274-1.345-1.027-1.642-2.225-0.92c-0.439,0.266-0.921,0.462-1.315,0.656c-0.442-0.147-0.827-0.167-1.039-0.363   c-1.202-1.142-2.442-2.25-3.51-3.511c-0.613-0.722-0.249-1.594,0.26-2.359c0.773-1.164,0.451-1.836-0.937-2.068   c-1.329-0.224-1.875-0.773-1.924-2.076c-0.046-1.215-0.043-2.436-0.001-3.649c0.04-1.146,0.61-1.884,1.796-2.105   c1.576-0.295,1.831-0.88,1.01-2.193c-0.71-1.142-0.642-1.951,0.302-2.946c0.754-0.793,1.54-1.554,2.315-2.328   c1.034-1.026,1.634-1.089,2.895-0.303c1.376,0.855,2.082,0.571,2.406-1.022c0.226-1.114,0.85-1.723,1.997-1.733   c1.176-0.017,2.354-0.036,3.527-0.007c1.45,0.027,2.049,0.548,2.347,1.949c0.293,1.378,0.886,1.621,2.093,0.872   c1.232-0.77,1.979-0.711,3.039,0.295c0.762,0.731,1.511,1.474,2.235,2.242c0.983,1.03,1.046,1.84,0.291,3.048   c-0.771,1.234-0.48,1.851,0.998,2.127c1.313,0.249,1.821,0.803,1.851,2.133C67.698,97.142,67.694,98.361,67.667,99.576z    M74.06,66.635c-0.032,1.246-0.626,1.891-1.893,2.12c-1.365,0.247-1.675,0.927-0.954,2.079c0.812,1.294,0.743,2.032-0.319,3.13   c-0.76,0.786-1.515,1.583-2.332,2.309c-0.405,0.355-0.945,0.561-1.489,0.868c-0.563-0.287-1.068-0.521-1.547-0.804   c-0.979-0.581-1.737-0.277-1.942,0.81c-0.328,1.755-0.732,2.104-2.494,2.114c-1.098,0.004-2.19-0.004-3.286,0   c-1.195,0-1.872-0.557-2.076-1.765c-0.264-1.559-0.878-1.823-2.187-1.013c-1.187,0.729-1.919,0.67-2.94-0.301   c-0.791-0.755-1.564-1.531-2.32-2.325c-0.991-1.039-1.028-1.819-0.201-3.02c0.604-0.872,0.371-1.546-0.652-1.914   c-2.168-0.77-2.245-0.88-2.247-3.229c0-0.931-0.015-1.863,0.017-2.794c0.034-1.129,0.596-1.785,1.745-1.976   c1.632-0.271,1.894-0.869,0.976-2.277c-0.635-0.973-0.537-1.859,0.191-2.661c0.84-0.931,1.731-1.824,2.661-2.67   c0.845-0.773,1.764-0.828,2.768-0.155c1.297,0.875,1.924,0.584,2.19-1c0.202-1.212,0.883-1.76,2.073-1.76   c1.218,0.002,2.433-0.021,3.65,0.006c1.329,0.03,1.88,0.538,2.109,1.864c0.247,1.436,0.881,1.701,2.164,0.907   c1.172-0.729,1.926-0.669,2.94,0.292c0.791,0.755,1.561,1.533,2.319,2.32c0.973,1.007,1.041,1.746,0.305,2.937   c-0.815,1.321-0.55,1.939,0.994,2.193c1.198,0.195,1.781,0.861,1.781,2.06C74.063,64.204,74.08,65.418,74.06,66.635z"></path>
	<path d="M53.186,92.343c-2.973-0.029-5.367,2.315-5.37,5.264c-0.004,2.926,2.405,5.44,5.248,5.471   c2.948,0.031,5.349-2.411,5.353-5.45C58.416,94.717,56.094,92.364,53.186,92.343z"></path>
	<path d="M59.542,58.721c-3.458-0.003-6.242,2.802-6.22,6.26c0.022,3.362,2.854,6.182,6.209,6.186   c3.401,0,6.251-2.882,6.227-6.296C65.734,61.484,62.942,58.723,59.542,58.721z"></path>
</g>
</svg>