<svg width="71" height="24" viewBox="0 0 71 24" fill="none" xmlns="http://www.w3.org/2000/svg">
<g clip-path="url(#clip0_1239_5250)">
<path d="M30.1946 12.3076C30.1946 15.6389 27.5886 18.0937 24.3903 18.0937C21.192 18.0937 18.5859 15.6389 18.5859 12.3076C18.5859 8.95279 21.192 6.52148 24.3903 6.52148C27.5886 6.52148 30.1946 8.95279 30.1946 12.3076ZM27.6538 12.3076C27.6538 10.2258 26.1433 8.80149 24.3903 8.80149C22.6372 8.80149 21.1268 10.2258 21.1268 12.3076C21.1268 14.3684 22.6372 15.8137 24.3903 15.8137C26.1433 15.8137 27.6538 14.3658 27.6538 12.3076Z" fill="#EA4335"/>
<path d="M42.7161 12.3076C42.7161 15.6389 40.11 18.0937 36.9118 18.0937C33.7135 18.0937 31.1074 15.6389 31.1074 12.3076C31.1074 8.9554 33.7135 6.52148 36.9118 6.52148C40.11 6.52148 42.7161 8.95279 42.7161 12.3076ZM40.1753 12.3076C40.1753 10.2258 38.6648 8.80149 36.9118 8.80149C35.1587 8.80149 33.6483 10.2258 33.6483 12.3076C33.6483 14.3684 35.1587 15.8137 36.9118 15.8137C38.6648 15.8137 40.1753 14.3658 40.1753 12.3076Z" fill="#FBBC05"/>
<path d="M54.7172 6.87105V17.2589C54.7172 21.5319 52.1972 23.2772 49.218 23.2772C46.4137 23.2772 44.7259 21.4015 44.0893 19.8676L46.3015 18.9467C46.6954 19.8885 47.6607 20.9998 49.2154 20.9998C51.1224 20.9998 52.3041 19.8232 52.3041 17.6084V16.7763H52.2154C51.6467 17.478 50.5511 18.0911 49.1685 18.0911C46.2754 18.0911 43.625 15.5711 43.625 12.3284C43.625 9.06236 46.2754 6.52148 49.1685 6.52148C50.5485 6.52148 51.6441 7.13453 52.2154 7.8154H52.3041V6.87366H54.7172V6.87105ZM52.4841 12.3284C52.4841 10.2911 51.125 8.80149 49.3954 8.80149C47.6424 8.80149 46.1737 10.2911 46.1737 12.3284C46.1737 14.345 47.6424 15.8137 49.3954 15.8137C51.125 15.8137 52.4841 14.345 52.4841 12.3284Z" fill="#4285F4"/>
<path d="M58.6951 0.782715V17.7393H56.2168V0.782715H58.6951Z" fill="#34A853"/>
<path d="M68.3522 14.2121L70.3243 15.5269C69.6878 16.4686 68.1539 18.0912 65.5035 18.0912C62.2165 18.0912 59.7617 15.5504 59.7617 12.3051C59.7617 8.86426 62.2374 6.51904 65.2191 6.51904C68.2217 6.51904 69.6904 8.90861 70.1704 10.1999L70.4339 10.8573L62.6991 14.0608C63.2913 15.2217 64.2122 15.8138 65.5035 15.8138C66.7974 15.8138 67.6948 15.1773 68.3522 14.2121ZM62.2817 12.1304L67.4522 9.98339C67.1678 9.26078 66.3122 8.75731 65.3052 8.75731C64.0139 8.75731 62.2165 9.89731 62.2817 12.1304Z" fill="#EA4335"/>
<path d="M9.20593 10.8026V8.34778H17.4781C17.559 8.77561 17.6007 9.2817 17.6007 9.82952C17.6007 11.6713 17.0972 13.9487 15.4746 15.5713C13.8964 17.2147 11.8798 18.0913 9.20854 18.0913C4.25723 18.0913 0.09375 14.0582 0.09375 9.10691C0.09375 4.1556 4.25723 0.122559 9.20854 0.122559C11.9477 0.122559 13.899 1.19734 15.3651 2.59821L13.6329 4.33039C12.5816 3.3443 11.1572 2.57734 9.20593 2.57734C5.59028 2.57734 2.76245 5.49126 2.76245 9.10691C2.76245 12.7226 5.59028 15.6365 9.20593 15.6365C11.5512 15.6365 12.8868 14.6947 13.7425 13.8391C14.4364 13.1452 14.8929 12.1539 15.0729 10.8L9.20593 10.8026Z" fill="#4285F4"/>
</g>
<defs>
<clipPath id="clip0_1239_5250">
<rect width="70.9566" height="24" fill="white"/>
</clipPath>
</defs>
</svg>
